<?xml version="1.0" encoding="UTF-8"?>
<svg version="1.1" xmlns="http://www.w3.org/2000/svg" width="256" height="256">
<path d="M0 0 C65.34 0 130.68 0 198 0 C198 14.52 198 29.04 198 44 C188.1 44.495 188.1 44.495 178 45 C171.21993522 47.3551804 167.31670111 49.46041915 163.89453125 55.796875 C162.41736878 59.43495199 161.60042708 63.12858957 161 67 C160.41992188 67.02578125 159.83984375 67.0515625 159.2421875 67.078125 C153.82241466 67.47163986 150.12497766 68.1696636 146 72 C142.36622594 78.99068915 142.54028253 86.06303511 142.60888672 93.78100586 C142.62494039 95.92952222 142.60899791 98.07615091 142.58984375 100.22460938 C142.58007929 107.71818274 143.06435845 114.04920849 146 121 C146.66 121 147.32 121 148 121 C148 128.59 148 136.18 148 144 C130.38871392 144.06949315 112.77748273 144.12300751 95.16609097 144.15543652 C86.98852809 144.17089513 78.81105205 144.19196537 70.63354492 144.22631836 C63.5047298 144.25625157 56.37597759 144.27558232 49.24710137 144.28226548 C45.47357365 144.28617112 41.70022587 144.29532879 37.92675591 144.31719017 C34.37188723 144.33761741 30.81727188 144.3438213 27.26235008 144.33932304 C25.34209327 144.34053634 23.42186378 144.35664579 21.50167847 144.3732605 C13.39638775 144.3442937 8.50666099 143.8642639 2.09797668 138.62960815 C-1.49615759 133.81586151 -0.65042265 127.6474241 -0.56762695 121.92626953 C-0.56609394 120.57387807 -0.56676503 119.2214826 -0.56945324 117.86909294 C-0.57057887 114.25783919 -0.54166946 110.64741922 -0.50640106 107.03636169 C-0.47785734 103.64392564 -0.47658186 100.25168904 -0.47302246 96.85913086 C-0.44681958 86.94764411 -0.37701339 77.03631143 -0.3125 67.125 C-0.209375 44.97375 -0.10625 22.8225 0 0 Z M25.21875 23.171875 C23.65908126 25.38905115 22.29933869 27.62204361 21 30 C20.6596875 30.60199219 20.319375 31.20398438 19.96875 31.82421875 C16.48491688 39.25962185 16.84241464 48.58059634 18.87890625 56.35546875 C22.60285608 66.05248663 28.54649848 73.48693598 38 78 C47.26007564 81.77093392 56.04785136 82.23156956 65.55078125 79.0390625 C74.81449672 75.10900139 81.96962707 68.45213519 86.1796875 59.2890625 C89.76304611 49.28978563 89.68740625 39.52820089 85.3125 29.8125 C80.14966755 20.56478913 72.28665574 13.61748167 62 10.625 C48.04321532 7.94529734 34.36817886 12.01599245 25.21875 23.171875 Z M111 21 C111.40528901 23.78237655 111.40528901 23.78237655 113 26 C114.96369153 26.0940067 116.93079199 26.11743381 118.89672852 26.11352539 C120.78857628 26.11341209 120.78857628 26.11341209 122.71864319 26.11329651 C124.10539794 26.1081891 125.49215229 26.10297309 126.87890625 26.09765625 C128.28995209 26.09579201 129.70099857 26.09436814 131.11204529 26.09336853 C134.83240535 26.08954379 138.5527266 26.0797139 142.27307129 26.06866455 C146.06680781 26.05844948 149.86055058 26.05387071 153.65429688 26.04882812 C161.10288231 26.03809158 168.55143572 26.0210157 176 26 C176.66 24.68 177.32 23.36 178 22 C177.01 20.515 177.01 20.515 176 19 C173.26779593 18.54631496 173.26779593 18.54631496 170.02148438 18.62768555 C168.13943298 18.61834236 168.13943298 18.61834236 166.21936035 18.60881042 C164.84415288 18.61749825 163.46894926 18.6268162 162.09375 18.63671875 C160.68892416 18.63723721 159.28409758 18.63672004 157.87927246 18.63520813 C154.9335651 18.63529791 151.98813112 18.64573833 149.04248047 18.66381836 C145.26259636 18.68650601 141.48311186 18.68705034 137.70317841 18.68030071 C134.80186396 18.67696259 131.90064098 18.6835878 128.99934387 18.69342995 C127.60545836 18.69728497 126.21156267 18.69842891 124.81767273 18.6968441 C122.87126388 18.69647413 120.92486834 18.71055528 118.97851562 18.7253418 C117.31544373 18.73225288 117.31544373 18.73225288 115.61877441 18.73930359 C112.84106507 18.73654605 112.84106507 18.73654605 111 21 Z M111 44 C111.40528901 46.78237655 111.40528901 46.78237655 113 49 C114.46256177 49.1034125 115.93004264 49.13850321 117.39624023 49.14526367 C118.33068466 49.15164352 119.26512909 49.15802338 120.22789001 49.16459656 C121.75283836 49.16626579 121.75283836 49.16626579 123.30859375 49.16796875 C124.34564957 49.17129715 125.38270538 49.17462555 126.45118713 49.17805481 C128.64950109 49.1831286 130.84782277 49.185463 133.04614258 49.18530273 C136.41956201 49.18748838 139.79265417 49.20563714 143.16601562 49.22460938 C145.29687388 49.2275433 147.42773369 49.2295281 149.55859375 49.23046875 C150.57320175 49.23765427 151.58780975 49.24483978 152.63316345 49.25224304 C153.57076004 49.24916641 154.50835663 49.24608978 155.47436523 49.24291992 C156.71560402 49.24505745 156.71560402 49.24505745 157.98191833 49.24723816 C160.2282948 49.18228751 160.2282948 49.18228751 162 47 C161.59471099 44.21762345 161.59471099 44.21762345 160 42 C158.53743823 41.8965875 157.06995736 41.86149679 155.60375977 41.85473633 C154.66931534 41.84835648 153.73487091 41.84197662 152.77210999 41.83540344 C151.75547775 41.83429062 150.73884552 41.8331778 149.69140625 41.83203125 C148.65435043 41.82870285 147.61729462 41.82537445 146.54881287 41.82194519 C144.35049891 41.8168714 142.15217723 41.814537 139.95385742 41.81469727 C136.58043799 41.81251162 133.20734583 41.79436286 129.83398438 41.77539062 C127.70312612 41.7724567 125.57226631 41.7704719 123.44140625 41.76953125 C122.42679825 41.76234573 121.41219025 41.75516022 120.36683655 41.74775696 C119.42923996 41.75083359 118.49164337 41.75391022 117.52563477 41.75708008 C116.28439598 41.75494255 116.28439598 41.75494255 115.01808167 41.75276184 C112.7717052 41.81771249 112.7717052 41.81771249 111 44 Z M111 67 C111.40528901 69.78237655 111.40528901 69.78237655 113 72 C116.97275815 72.25256877 120.95766175 72.18522451 124.9375 72.1875 C126.06091797 72.19974609 127.18433594 72.21199219 128.34179688 72.22460938 C129.41365234 72.22654297 130.48550781 72.22847656 131.58984375 72.23046875 C132.57847412 72.23457764 133.56710449 72.23868652 134.58569336 72.24291992 C137.18307091 72.23877244 137.18307091 72.23877244 139 70 C138.59471099 67.21762345 138.59471099 67.21762345 137 65 C133.02724185 64.74743123 129.04233825 64.81477549 125.0625 64.8125 C123.93908203 64.80025391 122.81566406 64.78800781 121.65820312 64.77539062 C120.58634766 64.77345703 119.51449219 64.77152344 118.41015625 64.76953125 C117.42152588 64.76542236 116.43289551 64.76131348 115.41430664 64.75708008 C112.81692909 64.76122756 112.81692909 64.76122756 111 67 Z M22 99 C21.91299658 100.63472882 21.89298937 102.27314055 21.90234375 103.91015625 C21.90556641 104.89951172 21.90878906 105.88886719 21.91210938 106.90820312 C21.92048828 107.94912109 21.92886719 108.99003906 21.9375 110.0625 C21.94201172 111.10728516 21.94652344 112.15207031 21.95117188 113.22851562 C21.96300087 115.8190666 21.97948311 118.40950559 22 121 C36.32494426 121.0233302 50.64988559 121.04091336 64.97484493 121.05181217 C71.6257353 121.05704174 78.27660786 121.06414072 84.92749023 121.07543945 C91.34002877 121.08626571 97.75255504 121.09227628 104.16510201 121.09487724 C106.61764278 121.09673197 109.07018285 121.10035347 111.52271843 121.10573006 C114.94476677 121.11293702 118.36676371 121.11399109 121.78881836 121.11352539 C123.3262973 121.1189183 123.3262973 121.1189183 124.89483643 121.12442017 C125.82176804 121.1230455 126.74869965 121.12167084 127.70372009 121.12025452 C128.91910414 121.12163721 128.91910414 121.12163721 130.1590414 121.12304783 C132.01773439 121.20172411 132.01773439 121.20172411 133 120 C133.09899523 118.45044441 133.13079524 116.89646327 133.1328125 115.34375 C133.13410156 114.40402344 133.13539063 113.46429688 133.13671875 112.49609375 C133.13285156 111.50738281 133.12898438 110.51867187 133.125 109.5 C133.12886719 108.51128906 133.13273437 107.52257812 133.13671875 106.50390625 C133.13542969 105.56417969 133.13414062 104.62445313 133.1328125 103.65625 C133.13112061 102.35397461 133.13112061 102.35397461 133.12939453 101.02539062 C133.2241537 99.00395846 133.2241537 99.00395846 132 98 C130.58554008 97.90233604 129.16624054 97.87368323 127.74841309 97.87301636 C126.37280464 97.86878662 126.37280464 97.86878662 124.96940613 97.86447144 C123.95534195 97.86649567 122.94127777 97.8685199 121.89648438 97.87060547 C120.30396599 97.86797699 120.30396599 97.86797699 118.67927551 97.86529541 C115.15075065 97.86087452 111.62227543 97.86381572 108.09375 97.8671875 C105.65376781 97.86651453 103.21378568 97.86554456 100.77380371 97.86428833 C95.65241866 97.86281103 90.53105101 97.86496693 85.40966797 97.86962891 C78.82837285 97.8753262 72.24711851 97.87204737 65.66582489 97.86605644 C60.62513926 97.86245168 55.58446338 97.86358902 50.54377747 97.86618423 C48.11635839 97.86685374 45.68893844 97.86602427 43.26152039 97.86370468 C39.87549477 97.86117955 36.48953621 97.86501678 33.10351562 97.87060547 C32.08945145 97.86858124 31.07538727 97.86655701 30.03059387 97.86447144 C29.11352158 97.86729126 28.19644928 97.87011108 27.25158691 97.87301636 C26.45000404 97.87339338 25.64842117 97.87377041 24.82254791 97.87415886 C22.98015831 97.80093511 22.98015831 97.80093511 22 99 Z " fill="#3B77FF" transform="translate(0,71)"/>
<path d="M0 0 C1.08552288 -0.00701996 1.08552288 -0.00701996 2.19297552 -0.01418173 C4.60658188 -0.02610309 7.01961743 -0.01668602 9.43322754 -0.00723267 C11.16820099 -0.01129965 12.90317185 -0.01664224 14.63813782 -0.02316284 C19.34264553 -0.03682719 24.04695563 -0.03154142 28.75146675 -0.02202559 C33.6774155 -0.01442445 38.60334745 -0.02147586 43.52929688 -0.02618408 C51.80117832 -0.0316403 60.07297939 -0.02445351 68.34484863 -0.01016235 C77.90498659 0.00616389 87.4649326 0.00087529 97.0250659 -0.01564157 C105.23669435 -0.02926022 113.44826505 -0.03117424 121.65990114 -0.02332556 C126.56282478 -0.01865114 131.46565823 -0.01801788 136.36857605 -0.02793503 C140.97824262 -0.0366079 145.58766197 -0.03057688 150.19730186 -0.01325226 C151.8879677 -0.00928914 153.57865439 -0.01041848 155.2693119 -0.01704025 C157.57931656 -0.02525291 159.8885318 -0.01493822 162.19848633 0 C163.49042152 0.00113108 164.78235672 0.00226215 166.11344147 0.00342751 C171.16781401 0.55083214 174.42396853 2.14214794 177.91174316 5.81845093 C183.58143118 14.42797718 180.59924316 25.5857696 180.59924316 35.38095093 C115.25924316 35.38095093 49.91924316 35.38095093 -17.40075684 35.38095093 C-17.40075684 9.38095093 -17.40075684 9.38095093 -13.40075684 3.38095093 C-8.91339904 0.40082702 -5.32384512 0.00466098 0 0 Z M3.59924316 16.38095093 C4.00453218 19.16332748 4.00453218 19.16332748 5.59924316 21.38095093 C8.05734315 21.63102823 8.05734315 21.63102823 10.59924316 21.38095093 C11.25924316 20.72095093 11.91924316 20.06095093 12.59924316 19.38095093 C12.19395415 16.59857438 12.19395415 16.59857438 10.59924316 14.38095093 C6.63807516 13.99004759 6.63807516 13.99004759 3.59924316 16.38095093 Z M19.59924316 16.38095093 C20.00453218 19.16332748 20.00453218 19.16332748 21.59924316 21.38095093 C24.05734315 21.63102823 24.05734315 21.63102823 26.59924316 21.38095093 C27.25924316 20.72095093 27.91924316 20.06095093 28.59924316 19.38095093 C28.19395415 16.59857438 28.19395415 16.59857438 26.59924316 14.38095093 C22.63807516 13.99004759 22.63807516 13.99004759 19.59924316 16.38095093 Z M36.59924316 14.38095093 C35.91965714 16.77814525 35.91965714 16.77814525 35.59924316 19.38095093 C37.43808197 21.66823827 37.43808197 21.66823827 40.22424316 21.50595093 C41.00799316 21.46470093 41.79174316 21.42345093 42.59924316 21.38095093 C43.25924316 20.06095093 43.91924316 18.74095093 44.59924316 17.38095093 C43.93924316 16.39095093 43.27924316 15.40095093 42.59924316 14.38095093 C39.51558446 14.13073523 39.51558446 14.13073523 36.59924316 14.38095093 Z M62.59924316 16.38095093 C63.00453218 19.16332748 63.00453218 19.16332748 64.59924316 21.38095093 C67.44941614 21.48682882 70.27548685 21.52772827 73.12634277 21.5262146 C74.02060471 21.52957321 74.91486664 21.53293182 75.83622742 21.53639221 C78.80802784 21.5459325 81.77977211 21.54784685 84.75158691 21.54891968 C86.80802942 21.55213008 88.86447169 21.55549399 90.9209137 21.55900574 C95.23776784 21.5650047 99.55460194 21.56684485 103.87145996 21.56625366 C109.41464646 21.56615199 114.95770502 21.57980626 120.50086117 21.59702587 C124.74980769 21.60812103 128.99872304 21.61017364 133.24768257 21.60964394 C135.29190067 21.61082773 137.33611949 21.61527171 139.38032341 21.6229763 C142.23455755 21.63272636 145.08851078 21.629918 147.94274902 21.62387085 C148.79425537 21.62949036 149.64576172 21.63510986 150.52307129 21.64089966 C155.03561163 21.81475229 155.03561163 21.81475229 158.59924316 19.38095093 C158.19395415 16.59857438 158.19395415 16.59857438 156.59924316 14.38095093 C153.74907019 14.27507303 150.92299948 14.23417358 148.07214355 14.23568726 C147.17788162 14.23232864 146.28361969 14.22897003 145.36225891 14.22550964 C142.39045849 14.21596935 139.41871422 14.214055 136.44689941 14.21298218 C134.39045691 14.20977177 132.33401464 14.20640787 130.27757263 14.20289612 C125.96071849 14.19689716 121.64388439 14.19505701 117.32702637 14.19564819 C111.78383987 14.19574987 106.24078131 14.1820956 100.69762516 14.16487598 C96.44867864 14.15378083 92.19976329 14.15172822 87.95080376 14.15225792 C85.90658566 14.15107412 83.86236684 14.14663014 81.81816292 14.13892555 C78.96392878 14.12917549 76.10997555 14.13198386 73.2557373 14.13803101 C72.40423096 14.1324115 71.55272461 14.12679199 70.67541504 14.1210022 C66.16287469 13.94714956 66.16287469 13.94714956 62.59924316 16.38095093 Z " fill="#3979FF" transform="translate(17.4007568359375,28.619049072265625)"/>
<path d="M0 0 C1.44205307 -0.00788544 1.44205307 -0.00788544 2.91323853 -0.01593018 C6.09133138 -0.02913535 9.26892353 -0.02039078 12.44702148 -0.01025391 C14.65372311 -0.01227432 16.86042408 -0.01518549 19.06712341 -0.01895142 C23.69146076 -0.02337534 28.31562426 -0.01694076 32.93994141 -0.00292969 C38.87426093 0.0141721 44.80817373 0.00431495 50.74247837 -0.01364708 C55.29858988 -0.02447444 59.85460454 -0.02104354 64.41071892 -0.0132637 C66.59924302 -0.01125932 68.78777584 -0.01372928 70.97628975 -0.02070236 C74.03130607 -0.02830059 77.08565829 -0.01673568 80.140625 0 C81.04927811 -0.00607269 81.95793121 -0.01214539 82.89411926 -0.0184021 C83.72546387 -0.00994263 84.55680847 -0.00148315 85.41334534 0.00723267 C86.49649442 0.00892928 86.49649442 0.00892928 87.60152531 0.01066017 C90.11345443 0.50869972 90.99076039 1.34626179 92.50561523 3.38818359 C92.82826026 6.29348954 92.97363882 8.9802115 92.97436523 11.88818359 C92.98578552 13.13631836 92.98578552 13.13631836 92.99743652 14.40966797 C93.0082371 16.16810099 93.01109078 17.92659816 93.0065918 19.68505859 C93.00561861 22.37885069 93.0472537 25.06980236 93.09155273 27.76318359 C93.0967591 29.47151098 93.09944794 31.17984828 93.09936523 32.88818359 C93.1157605 33.69449219 93.13215576 34.50080078 93.14904785 35.33154297 C93.12084961 37.60693359 93.12084961 37.60693359 92.50561523 41.38818359 C88.9486359 44.74392709 84.85894231 45.00088284 80.12280273 45.55615234 C79.42671906 45.64069168 78.73063538 45.72523102 78.01345825 45.81233215 C75.80365545 46.07781409 73.59233662 46.32675047 71.38061523 46.57568359 C69.88700132 46.75367987 68.39350977 46.93270611 66.90014648 47.11279297 C56.16993334 48.38818359 56.16993334 48.38818359 52.50561523 48.38818359 C52.44954102 47.39238281 52.44954102 47.39238281 52.39233398 46.37646484 C51.98916386 39.32634635 51.98916386 39.32634635 48.50561523 33.38818359 C43.3177361 30.60444357 38.1124075 31.43280935 32.50561523 32.38818359 C29.41602064 33.05048088 29.41602064 33.05048088 28.38061523 35.32568359 C27.57109241 38.15901348 27.22160613 40.65673807 26.95092773 43.57958984 C26.82355225 44.93032593 26.82355225 44.93032593 26.69360352 46.30834961 C26.63156738 46.99469482 26.56953125 47.68104004 26.50561523 48.38818359 C22.23405753 47.93644951 17.96353178 47.47557123 13.69311523 47.01318359 C11.89970703 46.82369141 11.89970703 46.82369141 10.07006836 46.63037109 C4.44594551 46.01738768 -1.16711301 45.35558474 -6.75610352 44.47412109 C-7.62581787 44.33796387 -8.49553223 44.20180664 -9.39160156 44.06152344 C-11.49438477 43.38818359 -11.49438477 43.38818359 -13.49438477 40.38818359 C-13.7143922 37.59427407 -13.82239078 34.9024053 -13.83032227 32.10693359 C-13.83697906 31.29703979 -13.84363586 30.487146 -13.85049438 29.65270996 C-13.86061384 27.94134797 -13.86531162 26.22994657 -13.86499023 24.51855469 C-13.86936901 21.8976167 -13.90570881 19.27835546 -13.94360352 16.65771484 C-13.9494707 14.99496019 -13.95344075 13.33219753 -13.95532227 11.66943359 C-13.9696933 10.88499878 -13.98406433 10.10056396 -13.99887085 9.2923584 C-13.95375479 3.93366386 -13.95375479 3.93366386 -12.05741882 1.68185425 C-8.11639781 -0.30734415 -4.35542234 -0.02917306 0 0 Z " fill="#1B9DFF" transform="translate(163.494384765625,144.61181640625)"/>
<path d="M0 0 C11.78605917 0.63153404 23.33877486 2.22561089 35 4 C35.18175781 4.54269531 35.36351562 5.08539063 35.55078125 5.64453125 C35.80214844 6.35996094 36.05351562 7.07539063 36.3125 7.8125 C36.55613281 8.52019531 36.79976562 9.22789062 37.05078125 9.95703125 C38.08186755 12.17620053 39.13133063 13.43573468 41 15 C46.21609943 16.4803787 51.07396298 16.34573191 56 14 C59.58353005 11.56831889 59.90716283 8.0147874 61 4 C65.01944343 3.42502921 69.03962508 2.85555765 73.06054688 2.29101562 C74.42631688 2.09848986 75.79188169 1.90450229 77.15722656 1.70898438 C79.12769946 1.4270773 81.09900124 1.15098358 83.0703125 0.875 C84.25383301 0.70742187 85.43735352 0.53984375 86.65673828 0.3671875 C89.80480281 0.02143834 92.83643856 -0.06739944 96 0 C96.11608127 4.41644598 96.1872132 8.83250017 96.25 13.25 C96.28351563 14.50425781 96.31703125 15.75851563 96.3515625 17.05078125 C96.37089844 18.85869141 96.37089844 18.85869141 96.390625 20.703125 C96.4220459 22.36843262 96.4220459 22.36843262 96.45410156 24.06738281 C95.87064924 27.83535555 95.05645759 28.74019811 92 31 C89.0521473 31.39455787 86.47822717 31.54732315 83.53125 31.51757812 C82.25254028 31.52809204 82.25254028 31.52809204 80.94799805 31.53881836 C78.1316668 31.55641568 75.31634136 31.5447696 72.5 31.53125 C70.54231575 31.53394442 68.5846328 31.53782642 66.62695312 31.54284668 C62.52460993 31.54874408 58.42261518 31.54017093 54.3203125 31.52148438 C49.06079372 31.49869475 43.80209136 31.51181653 38.54260254 31.53577423 C34.5002629 31.55022563 30.45811695 31.54562923 26.41577148 31.53526306 C24.47648014 31.53259396 22.53717123 31.53587197 20.59790039 31.54518127 C17.8877095 31.55533602 15.17884225 31.53986128 12.46875 31.51757812 C11.66655029 31.52567505 10.86435059 31.53377197 10.0378418 31.54211426 C6.47598564 31.4878354 4.40217284 31.2973478 1.49908447 29.15093994 C-0.5433531 26.22037756 -0.45760688 24.25316442 -0.390625 20.703125 C-0.37773437 19.49785156 -0.36484375 18.29257813 -0.3515625 17.05078125 C-0.31804687 15.79652344 -0.28453125 14.54226562 -0.25 13.25 C-0.23195312 11.98027344 -0.21390625 10.71054688 -0.1953125 9.40234375 C-0.14817153 6.26746923 -0.08237664 3.1341144 0 0 Z " fill="#1B9DFF" transform="translate(155,196)"/>
<path d="M0 0 C6.89926016 7.36307597 8.45867312 14.0458568 8.21484375 24.03125 C7.81478371 28.31989368 6.90712818 31.34842444 4.921875 35.171875 C3.931875 35.501875 2.941875 35.831875 1.921875 36.171875 C1.24125 35.40875 0.560625 34.645625 -0.140625 33.859375 C-3.43711025 30.84344169 -5.94119335 29.71308483 -10.078125 28.171875 C-8.078125 23.171875 -8.078125 23.171875 -6.890625 20.859375 C-5.47803732 16.1869696 -6.61956116 11.92970305 -7.828125 7.296875 C-9.47542741 4.4964609 -11.02436965 4.0880016 -14.078125 3.171875 C-14.738125 2.841875 -15.398125 2.511875 -16.078125 2.171875 C-22.18497729 1.66297064 -25.20772272 2.0943289 -30.078125 6.171875 C-33.37300479 9.46675479 -33.92186257 12.5621334 -34.078125 17.171875 C-32.8539794 20.86182463 -32.8539794 20.86182463 -31.078125 24.171875 C-30.68625 24.97625 -30.294375 25.780625 -29.890625 26.609375 C-29.6225 27.125 -29.354375 27.640625 -29.078125 28.171875 C-30.9034375 28.7596875 -30.9034375 28.7596875 -32.765625 29.359375 C-36.82464929 30.85367067 -39.14121754 32.97582865 -42.078125 36.171875 C-42.738125 36.171875 -43.398125 36.171875 -44.078125 36.171875 C-47.92941782 28.24577682 -49.64395672 21.18889128 -47.3828125 12.5 C-44.52424241 4.57287286 -40.57203057 -0.75363423 -33.078125 -4.703125 C-21.68109529 -9.85892416 -9.53555654 -8.38842192 0 0 Z " fill="#446BFF" transform="translate(73.078125,95.828125)"/>
<path d="M0 0 C0.94132782 -0.00953201 1.88265564 -0.01906403 2.85250854 -0.02888489 C4.36821945 -0.02751778 4.36821945 -0.02751778 5.91455078 -0.02612305 C7.48283127 -0.03255074 7.48283127 -0.03255074 9.08279419 -0.03910828 C11.29347002 -0.04484855 13.50416473 -0.04535407 15.71484375 -0.04101562 C19.09033612 -0.03786005 22.46494828 -0.06130406 25.84033203 -0.08666992 C27.99007051 -0.08894343 30.13981134 -0.08964617 32.28955078 -0.08862305 C33.29597626 -0.09783279 34.30240173 -0.10704254 35.33932495 -0.11653137 C42.00741348 -0.072702 46.53120853 0.71714695 51.54736328 5.4621582 C53.77554971 9.17580224 53.94330642 11.97419449 54.23486328 16.2746582 C49.94486328 16.2746582 45.65486328 16.2746582 41.23486328 16.2746582 C41.23486328 15.2846582 41.23486328 14.2946582 41.23486328 13.2746582 C26.71486328 13.2746582 12.19486328 13.2746582 -2.76513672 13.2746582 C-2.76513672 14.2646582 -2.76513672 15.2546582 -2.76513672 16.2746582 C-7.05513672 16.2746582 -11.34513672 16.2746582 -15.76513672 16.2746582 C-14.72681195 9.95031642 -14.0064026 6.39279568 -8.76513672 2.2746582 C-5.73448361 0.46926554 -3.51348196 0.01960433 0 0 Z " fill="#1B9DFF" transform="translate(183.76513671875,121.725341796875)"/>
<path d="M0 0 C1.03253906 -0.01998047 2.06507812 -0.03996094 3.12890625 -0.06054688 C7.66184933 -0.0576224 10.65611154 -0.03770947 14.65625 2.21484375 C16.46225789 4.39200157 17.20145552 5.65108484 17.5 8.4375 C16.10922699 9.25863177 14.71211107 10.06902495 13.3125 10.875 C12.53519531 11.32746094 11.75789063 11.77992188 10.95703125 12.24609375 C3.63103016 15.79844722 -3.6950629 14.70318108 -11.1875 12.3046875 C-13.84735256 11.30724279 -16.17271908 10.06659665 -18.5 8.4375 C-17.64730112 5.56933103 -16.90258199 3.79197471 -14.63671875 1.796875 C-9.82782791 -0.28717732 -5.18367237 -0.03559326 0 0 Z " fill="#446BFF" transform="translate(53.5,130.5625)"/>
<path d="M0 0 C1.64574566 -0.02688151 3.29161413 -0.04634123 4.9375 -0.0625 C5.85402344 -0.07410156 6.77054688 -0.08570313 7.71484375 -0.09765625 C10 0 10 0 11 1 C11.09880797 2.47652664 11.13079245 3.95767236 11.1328125 5.4375 C11.13474609 6.77941406 11.13474609 6.77941406 11.13671875 8.1484375 C11.13285156 9.08945313 11.12898437 10.03046875 11.125 11 C11.12886719 11.94101563 11.13273438 12.88203125 11.13671875 13.8515625 C11.13542969 14.74617187 11.13414062 15.64078125 11.1328125 16.5625 C11.13168457 17.38878906 11.13055664 18.21507812 11.12939453 19.06640625 C11 21 11 21 10 22 C8.31391034 22.07205511 6.62499341 22.08386068 4.9375 22.0625 C4.01839844 22.05347656 3.09929687 22.04445312 2.15234375 22.03515625 C1.44207031 22.02355469 0.73179687 22.01195312 0 22 C-1.1353654 19.72926921 -1.12892412 18.45716721 -1.1328125 15.9375 C-1.13410156 15.14085937 -1.13539063 14.34421875 -1.13671875 13.5234375 C-1.13285156 12.69070312 -1.12898437 11.85796875 -1.125 11 C-1.13080078 9.75089844 -1.13080078 9.75089844 -1.13671875 8.4765625 C-1.13542969 7.67992187 -1.13414062 6.88328125 -1.1328125 6.0625 C-1.13168457 5.33160156 -1.13055664 4.60070312 -1.12939453 3.84765625 C-1 2 -1 2 0 0 Z " fill="#1C9CFF" transform="translate(198,183)"/>
<path d="M0 0 C2.58094937 2.82291337 3.01389559 4.30522028 2.9375 8.125 C2 11 2 11 0.3125 12.875 C-2.73610685 14.35810604 -4.64742924 14.48891657 -8 14 C-10.375 12.4375 -10.375 12.4375 -12 10 C-12.5625 6.5 -12.5625 6.5 -12 3 C-8.35161233 -1.42228808 -5.36004496 -1.68742156 0 0 Z " fill="#4569FF" transform="translate(58,105)"/>
</svg>
